<svg xmlns="http://www.w3.org/2000/svg" xmlns:xlink="http://www.w3.org/1999/xlink" width="500" zoomAndPan="magnify" viewBox="0 0 375 374.999991" height="500" preserveAspectRatio="xMidYMid meet" version="1.0"><defs><clipPath id="a7fab13405"><path d="M 96.363281 96.363281 L 278.613281 96.363281 L 278.613281 278.613281 L 96.363281 278.613281 Z M 96.363281 96.363281 " clip-rule="nonzero"/></clipPath></defs><g clip-path="url(#a7fab13405)"><path fill="#ffffff" d="M 260.402344 169.273438 L 205.652344 169.273438 L 205.652344 114.59375 C 205.652344 104.535156 197.484375 96.367188 187.421875 96.367188 C 177.363281 96.367188 169.195312 104.535156 169.195312 114.59375 L 169.195312 169.273438 L 114.59375 169.273438 C 104.535156 169.273438 96.367188 177.4375 96.367188 187.496094 C 96.367188 197.558594 104.535156 205.722656 114.59375 205.722656 L 169.199219 205.722656 L 169.199219 260.402344 C 169.199219 270.464844 177.367188 278.628906 187.429688 278.628906 C 197.488281 278.628906 205.652344 270.464844 205.652344 260.402344 L 205.652344 205.722656 L 260.402344 205.722656 C 270.460938 205.722656 278.628906 197.558594 278.628906 187.496094 C 278.628906 177.4375 270.460938 169.273438 260.402344 169.273438 Z M 260.402344 169.273438 " fill-opacity="1" fill-rule="evenodd"/></g></svg>